<?xml version="1.0" encoding="utf-8"?>
<!-- Generator: Adobe Illustrator 25.1.0, SVG Export Plug-In . SVG Version: 6.00 Build 0)  -->
<svg version="1.1" id="Layer_1" xmlns="http://www.w3.org/2000/svg" xmlns:xlink="http://www.w3.org/1999/xlink" x="0px" y="0px"
	 width="100px" height="100px" viewBox="0 0 431 642.8" style="enable-background:new 0 0 431 642.8;" xml:space="preserve">
<style type="text/css">
	.st0{fill:#FDB927;}
	.st1{fill:#EF3E42;}
	.st2{fill:#FFFFFF;}
	.st3{fill:#F79C85;}
	.st4{fill:#B22C1B;}
	.st5{fill:#FEE4CD;}
</style>
<path d="M269.6,529.4c-1-7.9-7.3-14.7-19.1-16.3c-1.1-1.4-2.2-2.9-3.4-4.5c25-1.4,54.3-11.9,70.6-27.3
	c59.5-56.5,5.8-148.1,113.4-195.6c-108.1,37.8-59.4,141.6-116.2,193.4c-16.1,14.7-39.8,23.7-70.9,25.3c-7.7-10.7-16.4-23.7-22-32.8
	c1-1.3,2-2.6,2.9-4.1c-4.7-6.4-11.7-17.1-14.6-23c38.1,2.2,51.2-25.4,41.2-38.6c5.6-7.4,7.8-22.5-3.3-29.8
	c10.4-4.9,19.9-12.6,21.4-23.9c2-15-7.4-26.2-17-44.2c-7.1-13.4-12.8-29.1-21.1-33.7c0.2-0.6,0.3-1.2,0.5-1.8
	c23.8-13.6,37-40.3,37.1-61.2c11.6-35.4-2.9-71.4-31.2-94c14,1,39.6-4.7,51.4-36.8c6.6-18,4.7-40.2-12.9-59.2
	c-23-24.9-60-27.9-82.1-8.5c-25.9,22.7-21.2,63.5-3.6,81.2c-20.9-4.7-51.9-2.9-76.5,14.2c7.1-21.3,3.9-44.8-9.7-60
	C86.9,28.1,54,30.4,32.2,50.3C1.8,78-3.2,122.4,18.1,145c14.2,15.1,47.1,17.3,63.9,4.8c-10.4,22.9-12.3,68.9,6.8,96
	c-0.5,8.5,3.2,22.2,19,32.8C83.5,292.7,49.5,297,32.5,316c-13.3,15-8.7,35.6,4,40.1c0.5,4.5,2,9.1,4.7,13.7
	c-2.5,12.1-0.8,23.9,3.1,33.7c-14,12.5-3.9,50.9,27.6,47.7c1.2,9.6,2.4,19.4,2.6,24.8c6.3,6,26.8,14.2,49.5,11
	c2.2,6.1,4.2,15.9,5.7,21c-4,1.6-6.5,5.6-6.7,8.9c-29.4-7.7-77.8-25.9-108.1,0.8c-20.1,17.7-19.4,45.7-1,65.6
	c47.3,51.1,139.6,32,175.8,0.3c7.2,18.3,29.7,37.8,56.6,49.1c28.5,11.9,63.8,15.6,100.3-2.7c36.6-18.4,54.5-53.3,31.6-78.4
	C353.2,524.2,293.5,534.1,269.6,529.4z M208.1,311.7c5.5,3.7,8.5,11.6,10.5,16.9c-6-0.8-15.1,1.7-22.2,7c-1,0-2.2,0-3.3,0.1
	C194.8,329.7,204.5,316.2,208.1,311.7z M193.3,524.2c-1.5-6.9-5.1-13.7-16.1-15.6c-3.7-6.1-8.1-13.3-12-18.9
	c5.7,0.7,11.9,0.8,18.7,0.2c4.1,7.6,11.8,20.7,19,31.2c-2,1.2-3.7,2.9-4.9,4.9C196.3,525.2,194.7,524.5,193.3,524.2z"/>
<path d="M269.6,529.4c-1-7.9-7.3-14.7-19.1-16.3c-1.1-1.4-2.2-2.9-3.4-4.5c25-1.4,54.3-11.9,70.6-27.3
	c59.5-56.5,5.8-148.1,113.4-195.6c-108.1,37.8-59.4,141.6-116.2,193.4c-16.1,14.7-39.8,23.7-70.9,25.3c-7.7-10.7-16.4-23.7-22-32.8
	c1-1.3,2-2.6,2.9-4.1c-4.7-6.4-11.7-17.1-14.6-23c38.1,2.2,51.2-25.4,41.2-38.6c5.6-7.4,7.8-22.5-3.3-29.8
	c10.4-4.9,19.9-12.6,21.4-23.9c2-15-7.4-26.2-17-44.2c-7.1-13.4-12.8-29.1-21.1-33.7c0.2-0.6,0.3-1.2,0.5-1.8
	c23.8-13.6,37-40.3,37.1-61.2c11.6-35.4-2.9-71.4-31.2-94c14,1,39.6-4.7,51.4-36.8c6.6-18,4.7-40.2-12.9-59.2
	c-23-24.9-60-27.9-82.1-8.5c-25.9,22.7-21.2,63.5-3.6,81.2c-20.9-4.7-51.9-2.9-76.5,14.2c7.1-21.3,3.9-44.8-9.7-60
	C86.9,28.1,54,30.4,32.2,50.3C1.8,78-3.2,122.4,18.1,145c14.2,15.1,47.1,17.3,63.9,4.8c-10.4,22.9-12.3,68.9,6.8,96
	c-0.5,8.5,3.2,22.2,19,32.8C83.5,292.7,49.5,297,32.5,316c-13.3,15-8.7,35.6,4,40.1c0.5,4.5,2,9.1,4.7,13.7
	c-2.5,12.1-0.8,23.9,3.1,33.7c-14,12.5-3.9,50.9,27.6,47.7c1.2,9.6,2.4,19.4,2.6,24.8c6.3,6,26.8,14.2,49.5,11
	c2.2,6.1,4.2,15.9,5.7,21c-4,1.6-6.5,5.6-6.7,8.9c-29.4-7.7-77.8-25.9-108.1,0.8c-20.1,17.7-19.4,45.7-1,65.6
	c47.3,51.1,139.6,32,175.8,0.3c7.2,18.3,29.7,37.8,56.6,49.1c28.5,11.9,63.8,15.6,100.3-2.7c36.6-18.4,54.5-53.3,31.6-78.4
	C353.2,524.2,293.5,534.1,269.6,529.4z M258.9,522.6c-1.3-0.8-3.6-3.4-6.5-7c16.4,4.1,17.9,19.4,7.4,29
	c-14.9,13.8-47.1,9.8-56.9-0.5c-6.8-7.2-4.3-16.6,1.2-21.3c1.9,2.7,3.7,5.2,5.4,7.3C225.5,541.1,258.3,536,258.9,522.6z M198,525.9
	c-1.7-0.7-3.3-1.5-4.7-1.7c-1.5-6.9-5.1-13.7-16.1-15.6c-3.7-6.1-8.1-13.3-12-18.9c5.7,0.7,11.9,0.8,18.7,0.2
	c4.1,7.6,11.8,20.7,19,31.2C200.9,522.3,199.2,524,198,525.9z M221,441.4c-33.3,3.8-66.2-24.3-61.1-63.3c3.2-7.3,8.7-13.1,12.6-15.5
	c-5.6,1.6-9.2,5.1-11.4,9.2c4.2-18,15.6-31.6,32.7-34.1c-11.6,10.9-16.1,32.1-3.4,47.2c9.1,10.8,26.8,14.4,38.9,5.9
	c4,8.7,5.7,23.2-4.7,37.4c3.7-2.2,6.8-6.1,8.9-10.9c0.6,2.9,0.7,7-0.2,10.3c2.9-2.6,4.1-9.3,1.7-14.7c1.2-4.1,1.6-8.7,1-13.2
	C260.3,406,253,437.8,221,441.4z M156.6,397.8c-8.8,8-18.6,4-23.4-6.3c-4.6-9.9-4.5-30.8,6.7-41.8c7.7-7.6,18.2-7.1,23.9,4.8
	C154.6,368.9,154,385.1,156.6,397.8z M193.1,335.6c1.7-5.9,11.4-19.4,15-24c5.5,3.7,8.5,11.6,10.5,16.9c-6-0.8-15.1,1.7-22.2,7
	C195.4,335.5,194.2,335.5,193.1,335.6z M237.7,380.1c2.6-0.8,5.4-1.9,8.1-3c5.1,4.4,9.2,15.7,4,27c-3.2-3.2-7.9-5.6-14.3-6.7
	c-0.6-3.1-1.7-6.1-3.4-8.9C234.4,386.1,236.3,383.3,237.7,380.1z M235.1,380.9c-10.4,15.8-30.8,12.9-40.6,2
	c-9.1-10-9.2-24.7-3.6-35.7c6.4-12.4,19.7-16.4,28.9-16.4c0.6,0.7,0.6,1.8,0.8,2.1c-4.1,3.6-13.3,10.9-18.1,15.3
	c-6.2,14.1,0.8,35.7,18.2,35.5C222.6,383.7,228.3,382.8,235.1,380.9z M94.2,255.2c-4.9-12.8,1.1-24.2,12.1-28.7
	c-15.2-22.8-17.7-53.6-9.1-78.8c13.5-39.7,31.4-41.2,42.1-23c3.6-26.5,38.9-36.1,60.6-11.9c17.4,19.3,21.9,53.5,16.3,77.5
	c13.8-17.3,41.6-15.2,47.8,9.9c5.5,22.1-9.2,53.1-31.1,69c0.9-3.7,1.6-7.2,2.8-10.2c-8.3,8.3-5.6,24.6-23.5,33.5
	c-19,9.5-38.4-7.6-49.9-6.1c2.3,0.6,4.9,1.8,7.7,3.1C143.2,292.2,104,281.2,94.2,255.2z M85.3,318.4c-0.6,0.9-1.3,1.8-1.9,2.8
	c-12.2,2-33.4,16.9-41.2,44.8C36.4,351.5,44.2,319.2,85.3,318.4z M45.2,405.8c1.4,3.2,3.1,6.2,4.9,8.8c-0.6,7.2,5.4,16.9,10.5,15.9
	c-3.8-2.5-7.1-7.7-8.1-12.8c2.1,2.5,4.4,4.6,6.7,6.2c-36.2-46.1,0.6-92.2,22.2-99.6C56.6,363.6,58.3,404.4,69.7,430
	c0.2,4.4,0.9,10.8,1.7,17.6C43.6,449.8,35.9,416.4,45.2,405.8z M76.9,475.2c1-9.4-1.3-27.1-3-37.2c2.1,3.3,4.3,6,6.5,7.9
	c-20.9-36.2-18.7-79.6,1.1-115.7c35.7-21.4,66.8-11.4,93.9,12.3c-3.4,2.4-6.7,5.4-9.5,9.1c-6.1-9.9-17.7-13.7-27.9-4.5
	c-13.1,11.7-15.1,38.2-4.7,51c7.4,9.1,16.9,8.4,24.1,3.2c5.8,21.7,23.7,39.3,47.8,42.8c4.2,8.6,13.2,21.2,16.6,24
	c-9.7,11.5-34.6,25.2-71.8,15.1c-6.3-12.5-16.9-29.2-25-34.3c-8.1-5.1-26.6-8.3-33.6-5.8c8.1,1.7,26.3,5.5,31.9,8.7
	c4.4,2.5,14.7,17.1,20.7,26.7C128.2,485.1,96,486.7,76.9,475.2z M130.2,510.9c0.9,2.4,1,5.2,3.7,12.5c18.3,13.5,47.4,7.1,49.5-4.2
	c-0.7-1.9-2.3-4.4-4.3-7.5c9.8,2.3,16.8,18.3,5.4,28.5c-11,9.9-41.3,7.4-53.2-6.9C124.4,525.2,123.7,516.3,130.2,510.9z
	 M188.6,580.2c-40.1,31.7-128.5,46.8-172.6-1.7c-18.7-20.5-13.9-46.2,1.2-59.1c25.6-21.8,66.9-9.2,105.5,0.4
	c-0.5,16.5,18.5,29.2,40,30.1c19.2,0.8,31.5-9.5,30.9-22.2c1.4,0.2,2,0.7,2.8,0.9c-1.6,4.1-1.6,9,0.8,13.6
	C186,554.7,185.6,569.8,188.6,580.2z M343.7,626.5c-32.2,15.4-67,13.9-96.8,1.4c-28.7-12-50.6-32.8-55.4-48
	c-3.6-11.3,2.7-27.2,7.5-34.8c15.1,20,68.4,16.8,70.6-12.1c22.3,6.5,81-7.4,106.9,20.7C396.9,575.6,379.8,609.2,343.7,626.5z
	 M131.9,211.1c-1.4,1.2-2.7,2.4-3.8,3.8c6.4-4.4,27.7-13.6,52.1-11.8c-1.8-0.9-4.3-1.5-7-1.8c3-3.1,4.8-11.9,3.8-18.3
	c1.5-15.4-2.1-37.6-9.8-47.4c-6.3-7.9-13.8-6.6-17.4,4.9c-4.8,15.1-3.5,44.2,12.1,60.5c-6.3,0.5-13.1,1.9-19.1,4.2
	c1.2-15.3-2.7-45.1-9.5-57.4c-3.8-6.9-11.1-7.7-15.6,6.8C112.5,170.6,117.6,199.5,131.9,211.1z M151.9,141.1c3-10,7.8-10.5,12.6-4.5
	c6.1,7.6,10.1,25.7,10.3,41c-0.6-0.8-1.4-1.3-2.2-1.4c-6.8-0.6-8.7,19-4.6,24.8c-1.4,0-2.9,0-4.4,0.1
	C148.7,181.4,148,154.4,151.9,141.1z M120.1,154.8c2.6-11.5,8.6-12.4,11.8-4.6c3.3,7.8,5.9,22.2,7.4,37.3c-0.7-0.9-1.6-1.4-2.5-1.4
	c-4.9-0.1-8.4,16.3-3.3,23.8c-0.1,0.1-0.2,0.1-0.3,0.2C119,195.7,116.8,169.5,120.1,154.8z M211.6,286.6
	c17.9-10.1,17.7-44.2,21.3-64.2c1.7-3.9,3.2-8.1,4.4-12.5c3.5-0.3,7.3,0.1,11.2,1.3c-8.1-8.1-26.5-3.9-31.1,7.6
	c4.2-3.8,10.6-7.6,18-8.7c-19.1,59.1-87.1,63.6-122.3,38.9c2.2-1.8,4.6-3.3,7-4.2c-10.7-0.1-17,9.4-16.3,16.9c1-3.3,4.1-8,8.1-11.7
	c8.6,7,19,11.9,30.3,14.5C162.6,276,187.3,300.2,211.6,286.6z M147.5,265.6c30.6,5.1,65.4-6.1,82.5-37.3c-1.2,6-2.2,13.4-3.6,20.9
	c-8.3-1.6-19.5,3.6-24.9,13.9c-12.9-1.9-22.1,9.7-24.5,19.4C165.8,277.4,155.1,269.8,147.5,265.6z M200.8,264.5
	c-1.5,3.2-2.4,6.9-2.5,10.9c3.7-11.5,15-23.5,27.6-23.7c-2.7,13.4-6.9,26.6-16.1,32.1c-9.3,5.6-20.1,3.9-30.4-0.3
	C183,272.9,193.2,265.3,200.8,264.5z M183.8,390.1c-8.8,14.7-1.6,29.9-7.5,30C172.8,420.2,176.4,395.5,183.8,390.1z M176.2,375.5
	c-12.1,14.8-4.4,29.7-10,30.4C163.6,406.2,164.5,383.3,176.2,375.5z M149.4,563.2c-19.8-19.7-50.1-37-71.2-44.4
	C99.7,521.6,138.7,545.2,149.4,563.2z M313.4,544.7c-17,1.6-66.8,20.8-73.9,25.7C247.8,560.2,300.1,541.6,313.4,544.7z M88.5,337.8
	c-5.5-0.3-15.4,14.1-16.2,31.5c-0.6,13.3,2.7,27.3,10,27.6c7,0.3,11.8-13.2,13.8-29.2C98.1,351.6,95.5,338.2,88.5,337.8z
	 M92.4,368.4c-1.8,15.9-5.8,26-10,25.8c-4.6-0.2-8.2-11.7-7.5-25.7c0.6-14,8.5-28,13.1-27.8C93.8,340.9,93.7,357.5,92.4,368.4z
	 M179.2,221.6c1.9,9.4-8.7,19.5-23.7,22.5c-14.9,3-28.6-2.3-30.5-11.7c-1.9-9.4,8.7-19.5,23.7-22.5
	C163.7,207,177.3,212.2,179.2,221.6z"/>
<g>
	<path class="st0" d="M202.9,544.1c-6.8-7.2-4.3-16.6,1.2-21.3c1.9,2.7,3.7,5.2,5.4,7.3c16,11,48.8,5.9,49.4-7.6
		c-1.3-0.8-3.6-3.4-6.5-7c16.4,4.1,17.9,19.4,7.4,29C244.9,558.4,212.7,554.4,202.9,544.1z M343.7,626.5
		c-32.2,15.4-67,13.9-96.8,1.4c-28.7-12-50.6-32.8-55.4-48c-3.6-11.3,2.7-27.2,7.5-34.8c15.1,20,68.4,16.8,70.6-12.1
		c22.3,6.5,81-7.4,106.9,20.7C396.9,575.6,379.8,609.2,343.7,626.5z M313.4,544.7c-13.3-3-65.7,15.5-73.9,25.7
		C246.6,565.5,296.4,546.3,313.4,544.7z"/>
	<path class="st0" d="M131.2,533.4c-6.8-8.2-7.5-17.1-1-22.4c0.9,2.4,1,5.2,3.7,12.5c18.3,13.5,47.4,7.1,49.5-4.2
		c-0.7-1.9-2.3-4.4-4.3-7.5c9.8,2.3,16.8,18.3,5.4,28.5C173.5,550.2,143.2,547.7,131.2,533.4z M188.6,580.2
		c-40.1,31.7-128.5,46.8-172.6-1.7c-18.7-20.5-13.9-46.2,1.2-59.1c25.6-21.8,66.9-9.2,105.5,0.4c-0.5,16.5,18.5,29.2,40,30.1
		c19.2,0.8,31.5-9.5,30.9-22.2c1.4,0.2,2,0.7,2.8,0.9c-1.6,4.1-1.6,9,0.8,13.6C186,554.7,185.6,569.8,188.6,580.2z M149.4,563.2
		c-10.7-18-49.7-41.7-71.2-44.4C99.3,526.2,129.6,543.5,149.4,563.2z"/>
</g>
<path class="st1" d="M205.3,444c-24.2-3.4-42-21-47.8-42.8c-7.1,5.2-16.7,5.9-24.1-3.2c-10.4-12.8-8.4-39.2,4.7-51
	c10.2-9.1,21.9-5.4,27.9,4.5c2.9-3.7,6.2-6.8,9.5-9.1c-27.2-23.7-58.3-33.7-93.9-12.3c-19.8,36.1-22,79.5-1.1,115.7
	c-2.2-1.9-4.4-4.6-6.5-7.9c1.6,10.1,4,27.8,3,37.2c19,11.6,51.3,9.9,67.2,3.2c-5.9-9.6-16.2-24.2-20.7-26.7
	c-5.6-3.3-23.9-7.1-31.9-8.7c7-2.5,25.4,0.7,33.6,5.8c8.1,5.1,18.7,21.8,25,34.3c37.2,10.1,62-3.6,71.8-15.1
	C218.5,465.2,209.5,452.5,205.3,444z M96.1,367.7c-2,16-6.8,29.5-13.8,29.2c-7.4-0.3-10.6-14.3-10-27.6
	c0.8-17.4,10.6-31.7,16.2-31.5C95.5,338.2,98.1,351.6,96.1,367.7z"/>
<g>
	<path class="st2" d="M168,200.9c-4.1-5.8-2.2-25.3,4.6-24.8c0.8,0.1,1.6,0.6,2.2,1.4c-0.2-15.2-4.2-33.4-10.3-41
		c-4.8-6-9.6-5.5-12.6,4.5c-4,13.3-3.2,40.4,11.6,59.8C165,200.8,166.5,200.8,168,200.9z"/>
	<path class="st2" d="M133.5,209.9c-5.1-7.5-1.6-23.9,3.3-23.8c0.9,0,1.8,0.5,2.5,1.4c-1.5-15.1-4.1-29.5-7.4-37.3
		c-3.3-7.8-9.2-6.9-11.8,4.6c-3.4,14.7-1.1,40.9,13.1,55.3C133.3,210,133.4,209.9,133.5,209.9z"/>
	<path class="st2" d="M88,340.6c-4.6-0.2-12.5,13.8-13.1,27.8c-0.6,14.1,2.9,25.5,7.5,25.7c4.2,0.2,8.2-9.9,10-25.8
		C93.7,357.5,93.8,340.9,88,340.6z"/>
	<path class="st2" d="M163.9,354.5c-5.7-11.9-16.2-12.4-23.9-4.8c-11.3,11-11.3,31.9-6.7,41.8c4.8,10.3,14.6,14.4,23.4,6.3
		C154,385.1,154.6,368.9,163.9,354.5z"/>
	<path class="st2" d="M42.2,366c-5.9-14.5,2-46.8,43.1-47.6c-0.6,0.9-1.3,1.8-1.9,2.8C71.3,323.2,50,338.1,42.2,366z M81.4,324.3
		c-21.6,7.4-58.4,53.5-22.2,99.6c-2.3-1.6-4.6-3.7-6.7-6.2c1,5,4.2,10.3,8.1,12.8c-5.1,1-11.1-8.7-10.5-15.9
		c-1.8-2.6-3.5-5.6-4.9-8.8c-9.3,10.6-1.6,44,26.2,41.8c-0.8-6.8-1.5-13.2-1.7-17.6C58.3,404.4,56.6,363.6,81.4,324.3z"/>
	<path class="st2" d="M190.8,347.3c6.4-12.4,19.7-16.4,28.9-16.4c0.6,0.7,0.6,1.8,0.8,2.1c-4.1,3.6-13.3,10.9-18.1,15.3
		c-6.2,14.1,0.8,35.7,18.2,35.5c2,0,7.7-0.9,14.4-2.8c-10.4,15.8-30.8,12.9-40.6,2C185.3,372.9,185.2,358.2,190.8,347.3z
		 M235.5,397.3c6.4,1.2,11.2,3.6,14.3,6.7c5.2-11.3,1.1-22.6-4-27c-2.7,1.2-5.5,2.2-8.1,3c-1.4,3.3-3.3,6-5.6,8.3
		C233.8,391.2,234.9,394.2,235.5,397.3z M221,441.4c-33.3,3.8-66.2-24.3-61.1-63.3c3.2-7.3,8.7-13.1,12.6-15.5
		c-5.6,1.6-9.2,5.1-11.4,9.2c4.2-18,15.6-31.6,32.7-34.1c-11.6,10.9-16.1,32.1-3.4,47.2c9.1,10.8,26.8,14.4,38.9,5.9
		c4,8.7,5.7,23.2-4.7,37.4c3.7-2.2,6.8-6.1,8.9-10.9c0.6,2.9,0.7,7-0.2,10.3c2.9-2.6,4.1-9.3,1.7-14.7c1.2-4.1,1.6-8.7,1-13.2
		C260.3,406,253,437.8,221,441.4z M176.2,375.5c-11.6,7.8-12.6,30.6-10,30.4C171.7,405.2,164,390.3,176.2,375.5z M183.8,390.1
		c-7.4,5.4-10.9,30.1-7.5,30C182.2,420,174.9,404.8,183.8,390.1z"/>
</g>
<path class="st3" d="M198.3,275.4c0.1-4,1.1-7.7,2.5-10.9c-7.6,0.8-17.8,8.4-21.5,19c10.4,4.2,21.1,5.9,30.4,0.3
	c9.2-5.5,13.4-18.7,16.1-32.1C213.3,251.9,202,263.9,198.3,275.4z"/>
<path class="st4" d="M147.5,265.6c7.6,4.2,18.3,11.9,29.5,16.9c2.3-9.7,11.5-21.3,24.5-19.4c5.4-10.3,16.6-15.5,24.9-13.9
	c1.4-7.5,2.4-14.9,3.6-20.9C212.9,259.4,178.1,270.6,147.5,265.6z"/>
<path class="st5" d="M264,200.1c-6.2-25.1-34-27.2-47.8-9.9c5.6-24,1.2-58.1-16.3-77.5c-21.8-24.1-57.1-14.5-60.6,11.9
	c-10.8-18.2-28.7-16.7-42.1,23c-8.6,25.2-6.1,56,9.1,78.8c-10.9,4.5-17,15.9-12.1,28.7c9.9,25.9,49.1,37,75.8,34.3
	c-2.8-1.4-5.4-2.5-7.7-3.1c11.5-1.4,30.9,15.7,49.9,6.1c17.9-9,15.2-25.3,23.5-33.5c-1.1,2.9-1.8,6.4-2.8,10.2
	C254.7,253.3,269.4,222.2,264,200.1z M117.4,154.6c4.5-14.5,11.7-13.7,15.6-6.8c6.8,12.2,10.7,42,9.5,57.4c6-2.3,12.8-3.7,19.1-4.2
	c-15.6-16.3-16.9-45.4-12.1-60.5c3.7-11.5,11.1-12.9,17.4-4.9c7.7,9.7,11.4,31.9,9.8,47.4c1.1,6.3-0.8,15.2-3.8,18.3
	c2.8,0.4,5.2,1,7,1.8c-24.3-1.8-45.6,7.4-52.1,11.8c1.1-1.4,2.4-2.6,3.8-3.8C117.6,199.5,112.5,170.6,117.4,154.6z M155.5,244.1
	c-14.9,3-28.6-2.3-30.5-11.7c-1.9-9.4,8.7-19.5,23.7-22.5c15-3,28.6,2.3,30.5,11.7C181,231.1,170.4,241.1,155.5,244.1z M237.3,209.8
	c-1.2,4.4-2.6,8.6-4.4,12.5c-3.6,20-3.4,54.2-21.3,64.2c-24.3,13.7-49-10.5-69.5-22.1c-11.3-2.6-21.8-7.5-30.3-14.5
	c-4,3.7-7.1,8.4-8.1,11.7c-0.7-7.5,5.6-17,16.3-16.9c-2.4,0.8-4.8,2.3-7,4.2c35.2,24.7,103.2,20.2,122.3-38.9
	c-7.5,1.1-13.8,4.9-18,8.7c4.7-11.5,23-15.8,31.1-7.6C244.6,209.9,240.8,209.5,237.3,209.8z"/>
</svg>
