<!-- Generated by IcoMoon.io -->
<svg version="1.1" xmlns="http://www.w3.org/2000/svg" width="30" height="30" viewBox="0 0 1024 1024">
<title></title>
<g id="icomoon-ignore">
</g>
<path d="M601.856 360.084c24.025-33.921 38.144-75.354 38.144-120.084 0-114.875-93.125-208-208-208s-208 93.125-208 208c0 73.639 38.267 138.34 96 175.302v-39.531c-39.088-32.281-64-81.117-64-135.771 0-97.202 78.798-176 176-176s176 78.798 176 176c0 42.666-15.182 81.785-40.437 112.252 12.046 0.804 23.578 3.515 34.293 7.832v0 0zM544 330.517c20.013-24.732 32-56.225 32-90.517 0-79.529-64.471-144-144-144s-144 64.471-144 144c0 34.293 11.987 65.786 32 90.517v-90.796c0-61.761 50.144-111.721 112-111.721 61.73 0 112 50.019 112 111.721v90.796zM623.96 992c132.571 0 240.040-114.727 240.040-240 0 0 0 74.024 0 0v-191.946c0-26.539-21.306-48.054-48-48.054-26.51 0-48 21.478-48 48.054v15.946h-32v-79.794c0-26.623-21.306-48.206-48-48.206-26.51 0-48 21.489-48 48.206v47.794h-32v-79.794c0-26.623-21.306-48.206-48-48.206-26.51 0-48 21.489-48 48.206v111.794h-32v-335.832c0-26.602-21.306-48.168-48-48.168-26.51 0-48 21.348-48 48.168v361.432c-65.869-70.413-152.588-147.868-188.127-112.137-34.789 34.977 54.859 131.36 180.043 341.996 56.404 94.905 127.773 160.526 248.044 160.541v0zM896 752c0 150.221-121.779 272-272 272-99.613 0-204.742-46.48-277.094-178.297-104.432-190.263-237.983-315.040-174.391-378.633 45.493-45.493 116.919-1.849 179.484 56.667v0-283.468c0-44.576 35.817-80.269 80-80.269 44.491 0 80 35.938 80 80.269v159.679c13.371-10.018 29.99-15.948 48-15.948 34.641 0 63.836 21.679 75.066 52.1 14.105-12.484 32.637-20.1 52.934-20.1 44.491 0 80 35.783 80 79.924v0.431c13.371-10.002 29.99-15.901 48-15.901 44.491 0 80 35.819 80 80.004v191.542z"></path>
</svg>
