<!-- Generated by IcoMoon.io -->
<svg version="1.1" xmlns="http://www.w3.org/2000/svg" width="40" height="40" viewBox="0 0 448 448">
<title></title>
<g id="icomoon-ignore">
</g>
<path fill="#000" d="M218.25 185c0 27.75-24.25 50.5-54 50.5s-54-22.75-54-50.5c0-28 24.25-50.5 54-50.5s54 22.5 54 50.5zM343.75 185c0 27.75-24 50.5-54 50.5-29.75 0-54-22.75-54-50.5 0-28 24.25-50.5 54-50.5 30 0 54 22.5 54 50.5zM400 230v-166.75c0-28.75-9.25-40-35.75-40h-278c-27.75 0-35.5 9.5-35.5 40v168.25c59.25 31 110 25.5 137.75 24.5 11.75-0.25 19.25 2 23.75 6.75 0.75 0.75 1.5 1.5 2.5 2.25 5.25 5 10.25 9 15.25 12.75 1-13.75 8.75-22.5 29.5-21.75 28.25 1.25 80.25 6.75 140.5-26zM440.75 228.75c-16 19.75-46.5 44-93 63 49.25 167.75-120.25 194.5-117.5 108.5 0 1.5-0.25-46.25-0.25-81.75-3.75-0.75-7.5-1.75-12-2.75 0 35.75-0.25 86-0.25 84.5 2.75 86-166.75 59.25-117.5-108.5-46.5-19-77-43.25-93-63-8-12 0.75-24.75 14-15.5 1.75 1.25 3.75 2.5 5.5 3.75v-173.5c0-24 18-43.5 40.25-43.5h314.25c22.25 0 40.25 19.5 40.25 43.5v173.5l5.25-3.75c13.25-9.25 22 3.5 14 15.5z"></path>
</svg>
