<!-- Generated by IcoMoon.io -->
<svg version="1.1" xmlns="http://www.w3.org/2000/svg" width="35" height="35" viewBox="0 0 1536 1536">
<title></title>
<g id="icomoon-ignore">
</g>
<path fill="#000" d="M0 1407.999c0 70.719 57.279 128.001 128.001 128.001h1280.001c70.719 0 128.001-57.279 128.001-128.001l-0.003-1279.998c0-70.719-57.279-128.001-128.001-128.001h-1279.998c-70.722 0-128.001 57.279-128.001 128.001v1279.998zM288 768c0-105.921 86.079-192 192-192 44.16 0 84.801 15.039 117.12 39.681l267.489-121.281c-0.609-4.8-0.609-9.6-0.609-14.4 0-105.921 86.049-192 192-192s192 86.079 192 192-86.049 192-192 192c-49.281 0-94.401-18.561-128.319-49.281l-257.919 117.12c1.599 9.282 2.238 18.561 2.238 28.161s-0.639 18.879-2.241 28.161l257.919 116.799c33.921-30.399 79.041-48.96 128.322-48.96 105.951 0 192 86.049 192 192s-86.049 192-192 192-192-86.049-192-192c0-4.8 0-9.6 0.639-14.4l-267.489-121.599c-32.349 24.96-72.99 39.999-117.15 39.999-105.921 0-192-86.049-192-192z"></path>
</svg>
