<!-- Generated by IcoMoon.io -->
<svg version="1.1" xmlns="http://www.w3.org/2000/svg" width="30" height="30" viewBox="0 0 768 768">
<title></title>
<g id="icomoon-ignore">
</g>
<path d="M256 96h-64c-26.4 0-50.4 10.784-67.808 28.192s-28.192 41.408-28.192 67.808v64c0 26.4 10.784 50.4 28.192 67.808s41.408 28.192 67.808 28.192h64c26.4 0 50.4-10.784 67.808-28.192s28.192-41.408 28.192-67.808v-64c0-26.4-10.784-50.4-28.192-67.808s-41.408-28.192-67.808-28.192z"></path>
<path d="M576 96h-64c-26.4 0-50.4 10.784-67.808 28.192s-28.192 41.408-28.192 67.808v64c0 26.4 10.784 50.4 28.192 67.808s41.408 28.192 67.808 28.192h64c26.4 0 50.4-10.784 67.808-28.192s28.192-41.408 28.192-67.808v-64c0-26.4-10.784-50.4-28.192-67.808s-41.408-28.192-67.808-28.192z"></path>
<path d="M256 416h-64c-26.4 0-50.4 10.784-67.808 28.192s-28.192 41.408-28.192 67.808v64c0 26.4 10.784 50.4 28.192 67.808s41.408 28.192 67.808 28.192h64c26.4 0 50.4-10.784 67.808-28.192s28.192-41.408 28.192-67.808v-64c0-26.4-10.784-50.4-28.192-67.808s-41.408-28.192-67.808-28.192z"></path>
<path d="M576 416h-64c-26.4 0-50.4 10.784-67.808 28.192s-28.192 41.408-28.192 67.808v64c0 26.4 10.784 50.4 28.192 67.808s41.408 28.192 67.808 28.192h64c26.4 0 50.4-10.784 67.808-28.192s28.192-41.408 28.192-67.808v-64c0-26.4-10.784-50.4-28.192-67.808s-41.408-28.192-67.808-28.192z"></path>
</svg>
