<!-- Generated by IcoMoon.io -->
<svg version="1.1" xmlns="http://www.w3.org/2000/svg" width="30" height="30" viewBox="0 0 768 768">
<title></title>
<g id="icomoon-ignore">
</g>
<path d="M240 608c0 44.182-35.817 80-80 80s-80-35.817-80-80c0-44.183 35.817-80 80-80s80 35.817 80 80z"></path>
<path d="M240 384c0 44.183-35.817 80-80 80s-80-35.817-80-80c0-44.183 35.817-80 80-80s80 35.817 80 80z"></path>
<path d="M240 160c0 44.183-35.817 80-80 80s-80-35.817-80-80c0-44.183 35.817-80 80-80s80 35.817 80 80z"></path>
<path d="M464 608c0 44.182-35.817 80-80 80s-80-35.817-80-80c0-44.183 35.817-80 80-80s80 35.817 80 80z"></path>
<path d="M464 384c0 44.183-35.817 80-80 80s-80-35.817-80-80c0-44.183 35.817-80 80-80s80 35.817 80 80z"></path>
<path d="M464 160c0 44.183-35.817 80-80 80s-80-35.817-80-80c0-44.183 35.817-80 80-80s80 35.817 80 80z"></path>
<path d="M688 608c0 44.182-35.817 80-80 80s-80-35.817-80-80c0-44.183 35.817-80 80-80s80 35.817 80 80z"></path>
<path d="M688 384c0 44.183-35.817 80-80 80s-80-35.817-80-80c0-44.183 35.817-80 80-80s80 35.817 80 80z"></path>
<path d="M688 160c0 44.183-35.817 80-80 80s-80-35.817-80-80c0-44.183 35.817-80 80-80s80 35.817 80 80z"></path>
</svg>
