<!-- Generated by IcoMoon.io -->
<svg version="1.1" xmlns="http://www.w3.org/2000/svg" width="40" height="40" viewBox="0 0 768 768">
<title></title>
<g id="icomoon-ignore">
</g>
<path d="M416 128c-123.488 0-224 100.512-224 224 0 24.416 4.064 47.84 11.328 69.856l-40.32 40.384-32.256 33.44c-17.984 17.824-28.512 43.040-28.512 69.92 0 55.264 44.928 100.192 100.16 100.192 24.224 0 48.128-8.896 67.328-25.088l2.048-1.76 1.952-1.952 72.384-72.288c22.016 7.232 45.472 11.296 69.888 11.296 123.488 0 224-100.512 224-224s-100.512-224-224-224zM416 512c-88.224 0-160-71.776-160-160s71.776-160 160-160 160 71.776 160 160-71.776 160-160 160z"></path>
<path d="M416 224c-70.56 0-128 57.408-128 128s57.44 128 128 128 128-57.408 128-128-57.44-128-128-128zM416 448c-52.992 0-96-43.008-96-96s43.008-96 96-96 96 43.008 96 96-43.008 96-96 96z"></path>
</svg>
